<svg viewBox="0 0 512 512" xmlns="http://www.w3.org/2000/svg"><circle cx="489.9" cy="388.2" r="12.2" fill="#ffffff" class="fill-000000"></circle><path d="M89.73 57.23h51a7 7 0 0 0 0-14h-51a7 7 0 0 0 0 14Z" fill="#ffffff" class="fill-000000"></path><circle cx="92.71" cy="465.74" r="12.2" transform="rotate(-9.22 92.645 465.636)" fill="#ffffff" class="fill-000000"></circle><circle cx="56.88" cy="51.4" r="12.2" transform="rotate(-58.28 56.88 51.402)" fill="#ffffff" class="fill-000000"></circle><path d="M209.63 246.71a8 8 0 0 0-8 8 12.08 12.08 0 1 1-24.15 0 8 8 0 0 0-16 0 28.08 28.08 0 1 0 56.15 0 8 8 0 0 0-8-8ZM252.58 294.8a43.16 43.16 0 0 0-43.11 43.11 8 8 0 0 0 16 0 27.11 27.11 0 1 1 54.22 0 8 8 0 0 0 16 0 43.16 43.16 0 0 0-43.11-43.11ZM335.9 246.71a8 8 0 0 0-8 8 12.08 12.08 0 1 1-24.15 0 8 8 0 0 0-16 0 28.08 28.08 0 1 0 56.15 0 8 8 0 0 0-8-8Z" fill="#ffffff" class="fill-000000"></path><path d="M463.38 256.56a206.6 206.6 0 0 0-18.21-85.66h50.12a7 7 0 0 0 0-14h-57.08A209.71 209.71 0 0 0 427 138.58q-5-7.2-10.47-13.89A50.65 50.65 0 0 0 398.78 34l1.12-12.31a14.08 14.08 0 0 0 0-2.25 12.44 12.44 0 0 0-24.77 2.25l1.11 12.2a50.88 50.88 0 0 0-36.69 32.4 207.18 207.18 0 0 0-83-17.62c-3.48 0-6.92.06-10.2.22A207.17 207.17 0 0 0 92 382.94h-7.62a24.22 24.22 0 0 0-24.19 24.19A10.19 10.19 0 0 1 50 417.32H15.41a7 7 0 0 0 0 14H50a24.21 24.21 0 0 0 24.18-24.19 10.2 10.2 0 0 1 10.19-10.19h19.53a206.91 206.91 0 0 0 151.54 66.45h.56a205.64 205.64 0 0 0 148.51-62.66c1.77-1.81 3.49-3.66 5.19-5.53h43.67a7 7 0 0 0 0-14h-32.05q2.26-3 4.39-6a206 206 0 0 0 37.67-118.64ZM377.53 47.94l2 21.82a8 8 0 0 0 16 0l2-21.69a36.69 36.69 0 1 1-20-.13Zm-125.15 15.9a29.68 29.68 0 0 1-58 8.81A192.35 192.35 0 0 1 247 62.83c1.73-.09 3.52-.14 5.32-.17.03.39.06.79.06 1.18ZM116.86 307.76a35.42 35.42 0 0 1 .31 4.75 36.33 36.33 0 0 1-31.1 35.8A193.72 193.72 0 0 1 74.56 189a50.22 50.22 0 0 1 53.15 79.25 53.37 53.37 0 0 0-10.85 39.51ZM266.63 449.1v-1.63a29.72 29.72 0 0 1 29.68-29.7c11.65 0 20.07 6.4 25.09 11.78a47.51 47.51 0 0 1 5.15 6.64 192.47 192.47 0 0 1-59.92 12.91ZM368 381.2a7 7 0 0 0 0 14h22.21a193.07 193.07 0 0 1-52.5 36.2 59.34 59.34 0 0 0-7.54-10c-9.39-10.05-21.41-15.59-33.86-15.59a41.74 41.74 0 0 0-41.68 41.7v1.9a192.44 192.44 0 0 1-131-52.43h46.79a7 7 0 1 0 0-14h-60.28a194.57 194.57 0 0 1-17.64-23.72 48.18 48.18 0 0 0 36.26-53.06 41.28 41.28 0 0 1 8.41-30.6 62.23 62.23 0 0 0-52-100.45c-1.7.08-3.4.24-5.09.45a192.24 192.24 0 0 1 38.1-55.25 195 195 0 0 1 64.92-43.5 41.69 41.69 0 0 0 81.29-13v-1a193.06 193.06 0 0 1 72.33 17.49c-.06 1-.09 2-.09 3a50.67 50.67 0 0 0 67.13 47.94c4.12 4.87 8 10 11.7 15.28 2.34 3.39 4.56 6.86 6.67 10.38h-12.88a24.21 24.21 0 0 0-24.18 24.18 10.2 10.2 0 0 1-10.19 10.19h-34.6a7 7 0 0 0 0 14h34.6a24.22 24.22 0 0 0 24.19-24.19 10.2 10.2 0 0 1 10.18-10.18h20.45a193.59 193.59 0 0 1-15.44 196.24q-5.08 7.25-10.89 14.06Z" fill="#ffffff" class="fill-000000"></path><path d="M387.51 104.72a7 7 0 0 0 7-7V94.1a7 7 0 0 0-14 0v3.62a7 7 0 0 0 7 7Z" fill="#ffffff" class="fill-000000"></path></svg>