<?xml version="1.0" ?><svg viewBox="0 0 64 64" xmlns="http://www.w3.org/2000/svg"><title/><g data-name="23-breath" id="_23-breath"><path d="M59,1,33.851,21.491a6.112,6.112,0,0,0-2.189,3.873h0A6.113,6.113,0,0,0,35.3,31.845L45,36l-2.4,3.846a4.711,4.711,0,0,0,1.656,6.586l6.968,3.985a3.111,3.111,0,0,1,.715,3.714h0a3.109,3.109,0,0,1-3.019,1.709l-6.457-.5A2.532,2.532,0,0,0,40,59h0l1,4H63V1Z" style="fill:none;stroke:#000;stroke-linejoin:round;stroke-width:2px"/><ellipse cx="44.5" cy="30.5" rx="1.5" ry="4.5" style="fill:none;stroke:#000;stroke-linejoin:round;stroke-width:2px" transform="translate(1.544 63.138) rotate(-71.654)"/><path d="M56,31h0a3.859,3.859,0,0,1-3.211,6H51" style="fill:none;stroke:#000;stroke-linejoin:round;stroke-width:2px"/><circle cx="18" cy="51" r="5" style="fill:none;stroke:#000;stroke-linejoin:round;stroke-width:2px"/><line style="fill:none;stroke:#000;stroke-linejoin:round;stroke-width:2px" x1="18" x2="18" y1="43" y2="46"/><line style="fill:none;stroke:#000;stroke-linejoin:round;stroke-width:2px" x1="24.061" x2="21.939" y1="45.439" y2="47.561"/><line style="fill:none;stroke:#000;stroke-linejoin:round;stroke-width:2px" x1="11.939" x2="14.061" y1="45.439" y2="47.561"/><line style="fill:none;stroke:#000;stroke-linejoin:round;stroke-width:2px" x1="18" x2="18" y1="56" y2="59"/><line style="fill:none;stroke:#000;stroke-linejoin:round;stroke-width:2px" x1="21.939" x2="24.061" y1="54.439" y2="56.561"/><line style="fill:none;stroke:#000;stroke-linejoin:round;stroke-width:2px" x1="14.061" x2="11.939" y1="54.439" y2="56.561"/><line style="fill:none;stroke:#000;stroke-linejoin:round;stroke-width:2px" x1="23" x2="26" y1="51" y2="51"/><line style="fill:none;stroke:#000;stroke-linejoin:round;stroke-width:2px" x1="10" x2="13" y1="51" y2="51"/><line style="fill:none;stroke:#000;stroke-linejoin:round;stroke-width:2px" x1="18" x2="20" y1="49" y2="49"/><line style="fill:none;stroke:#000;stroke-linejoin:round;stroke-width:2px" x1="16" x2="18" y1="53" y2="53"/><circle cx="8" cy="30" r="5" style="fill:none;stroke:#000;stroke-linejoin:round;stroke-width:2px"/><line style="fill:none;stroke:#000;stroke-linejoin:round;stroke-width:2px" x1="8" x2="8" y1="22" y2="25"/><line style="fill:none;stroke:#000;stroke-linejoin:round;stroke-width:2px" x1="14.061" x2="11.939" y1="24.439" y2="26.561"/><line style="fill:none;stroke:#000;stroke-linejoin:round;stroke-width:2px" x1="1.939" x2="4.061" y1="24.439" y2="26.561"/><line style="fill:none;stroke:#000;stroke-linejoin:round;stroke-width:2px" x1="8" x2="8" y1="35" y2="38"/><line style="fill:none;stroke:#000;stroke-linejoin:round;stroke-width:2px" x1="11.939" x2="14.061" y1="33.439" y2="35.561"/><line style="fill:none;stroke:#000;stroke-linejoin:round;stroke-width:2px" x1="4.061" x2="1.939" y1="33.439" y2="35.561"/><line style="fill:none;stroke:#000;stroke-linejoin:round;stroke-width:2px" x1="13" x2="16" y1="30" y2="30"/><line style="fill:none;stroke:#000;stroke-linejoin:round;stroke-width:2px" x2="3" y1="30" y2="30"/><line style="fill:none;stroke:#000;stroke-linejoin:round;stroke-width:2px" x1="8" x2="10" y1="28" y2="28"/><line style="fill:none;stroke:#000;stroke-linejoin:round;stroke-width:2px" x1="6" x2="8" y1="32" y2="32"/><circle cx="22" cy="13" r="5" style="fill:none;stroke:#000;stroke-linejoin:round;stroke-width:2px"/><line style="fill:none;stroke:#000;stroke-linejoin:round;stroke-width:2px" x1="22" x2="22" y1="5" y2="8"/><line style="fill:none;stroke:#000;stroke-linejoin:round;stroke-width:2px" x1="28.061" x2="25.939" y1="7.439" y2="9.561"/><line style="fill:none;stroke:#000;stroke-linejoin:round;stroke-width:2px" x1="15.939" x2="18.061" y1="7.439" y2="9.561"/><line style="fill:none;stroke:#000;stroke-linejoin:round;stroke-width:2px" x1="22" x2="22" y1="18" y2="21"/><line style="fill:none;stroke:#000;stroke-linejoin:round;stroke-width:2px" x1="25.939" x2="28.061" y1="16.439" y2="18.561"/><line style="fill:none;stroke:#000;stroke-linejoin:round;stroke-width:2px" x1="18.061" x2="15.939" y1="16.439" y2="18.561"/><line style="fill:none;stroke:#000;stroke-linejoin:round;stroke-width:2px" x1="27" x2="30" y1="13" y2="13"/><line style="fill:none;stroke:#000;stroke-linejoin:round;stroke-width:2px" x1="14" x2="17" y1="13" y2="13"/><line style="fill:none;stroke:#000;stroke-linejoin:round;stroke-width:2px" x1="22" x2="24" y1="11" y2="11"/><line style="fill:none;stroke:#000;stroke-linejoin:round;stroke-width:2px" x1="20" x2="22" y1="15" y2="15"/><path d="M35,35h0a11.611,11.611,0,0,1-7.109,6.7L27,42" style="fill:none;stroke:#000;stroke-linejoin:round;stroke-width:2px"/><path d="M39,37l-.017.05A26.233,26.233,0,0,1,28,51h0" style="fill:none;stroke:#000;stroke-linejoin:round;stroke-width:2px"/></g></svg>