<svg viewBox="0 0 512 512" xmlns="http://www.w3.org/2000/svg"><path d="M119.524 199.054h-29.27a10 10 0 0 0-10 10v83.555a10 10 0 0 0 20 0v-32.118h19.27a30.718 30.718 0 1 0 0-61.437Zm0 41.437h-19.27v-21.437h19.27a10.718 10.718 0 1 1 0 21.437ZM244.776 209.054a10 10 0 0 0-18.135-5.814l-21.877 30.608-21.877-30.608a10 10 0 0 0-18.136 5.814v83.983a10 10 0 0 0 20 0v-52.794l11.877 16.617a10 10 0 0 0 16.271 0l11.877-16.617v52.794a10 10 0 0 0 20 0ZM330.96 232.061a33.044 33.044 0 0 0-33.007-33.007h-2.737a33.044 33.044 0 0 0-33.008 33.007v2.93a10 10 0 1 0 20 0v-2.93a13.022 13.022 0 0 1 13.008-13.007h2.737a13.007 13.007 0 0 1 9.549 21.84q-.21.225-.405.465l-37.635 46.093a10 10 0 0 0 7.746 16.324h43.752a10 10 0 0 0 0-20h-22.677l24.127-29.55a32.908 32.908 0 0 0 8.55-22.165Z" fill="#ffffff" class="fill-000000"></path><circle cx="349.619" cy="294.376" r="9.427" fill="#ffffff" class="fill-000000"></circle><path d="M398.593 237.184H387.82v-18.13h25.238a10 10 0 0 0 0-20H377.82a10 10 0 0 0-10 10v38.13a10 10 0 0 0 10 10h20.773a13.153 13.153 0 0 1 0 26.307H377.82a10 10 0 0 0 0 20h20.773a33.153 33.153 0 1 0 0-66.307Z" fill="#ffffff" class="fill-000000"></path><circle cx="256" cy="155.405" r="12.724" transform="rotate(-80.782 256 155.406)" fill="#ffffff" class="fill-000000"></circle><circle cx="352.6" cy="155.405" r="12.724" transform="rotate(-22.5 352.6 155.406)" fill="#ffffff" class="fill-000000"></circle><circle cx="159.4" cy="155.405" r="12.724" fill="#ffffff" class="fill-000000"></circle><circle cx="207.7" cy="114.758" r="12.724" fill="#ffffff" class="fill-000000"></circle><circle cx="304.3" cy="114.758" r="12.724" transform="rotate(-22.5 304.3 114.758)" fill="#ffffff" class="fill-000000"></circle><circle cx="256" cy="356.594" r="12.723" transform="rotate(-67.5 256 356.594)" fill="#ffffff" class="fill-000000"></circle><circle cx="159.4" cy="356.594" r="12.723" fill="#ffffff" class="fill-000000"></circle><circle cx="352.6" cy="356.594" r="12.724" transform="rotate(-9.213 352.594 356.527)" fill="#ffffff" class="fill-000000"></circle><circle cx="304.3" cy="397.242" r="12.723" transform="rotate(-4.065 304.297 397.238)" fill="#ffffff" class="fill-000000"></circle><circle cx="207.7" cy="397.242" r="12.724" fill="#ffffff" class="fill-000000"></circle></svg>